<svg class="brolly-logo" width="200" height="103" viewBox="0 0 200 103" fill="none" xmlns="http://www.w3.org/2000/svg">
<path fill-rule="evenodd" clip-rule="evenodd" d="M169.444 27.7778C170.979 27.7778 172.222 29.0214 172.222 30.5556V58.3333C172.222 64.4698 177.197 69.4444 183.333 69.4444C189.47 69.4444 194.444 64.4698 194.444 58.3333V30.5556C194.444 29.0214 195.688 27.7778 197.222 27.7778C198.756 27.7778 200 29.0214 200 30.5556V86.1111C200 95.3159 192.538 102.778 183.333 102.778C181.799 102.778 180.556 101.534 180.556 100C180.556 98.4659 181.799 97.2222 183.333 97.2222C189.47 97.2222 194.444 92.2476 194.444 86.1111V70.7561C191.496 73.3953 187.602 75 183.333 75C174.129 75 166.667 67.5381 166.667 58.3333V30.5556C166.667 29.0214 167.91 27.7778 169.444 27.7778Z" fill="black"/>
<path fill-rule="evenodd" clip-rule="evenodd" d="M127.778 69.4444C121.641 69.4444 116.667 64.4698 116.667 58.3333V2.77778C116.667 1.24366 115.423 2.86102e-06 113.889 2.86102e-06C112.355 2.86102e-06 111.111 1.24366 111.111 2.77778V58.3333C111.111 67.5381 118.573 75 127.778 75C129.312 75 130.556 73.7563 130.556 72.2222C130.556 70.6881 129.312 69.4444 127.778 69.4444Z" fill="black"/>
<path fill-rule="evenodd" clip-rule="evenodd" d="M155.556 69.4444C149.419 69.4444 144.444 64.4698 144.444 58.3333V2.77778C144.444 1.24366 143.201 2.86102e-06 141.667 2.86102e-06C140.133 2.86102e-06 138.889 1.24366 138.889 2.77778V58.3333C138.889 67.5381 146.351 75 155.556 75C157.09 75 158.333 73.7563 158.333 72.2222C158.333 70.6881 157.09 69.4444 155.556 69.4444Z" fill="black"/>
<path fill-rule="evenodd" clip-rule="evenodd" d="M69.4444 44.4444C69.4444 35.2397 76.9064 27.7778 86.1111 27.7778C95.3159 27.7778 102.778 35.2397 102.778 44.4444V58.3333C102.778 67.5381 95.3159 75 86.1111 75C76.9064 75 69.4444 67.5381 69.4444 58.3333V44.4444ZM86.1111 33.3333C79.9746 33.3333 75 38.3079 75 44.4444V58.3333C75 64.4698 79.9746 69.4444 86.1111 69.4444C92.2476 69.4444 97.2222 64.4698 97.2222 58.3333V44.4444C97.2222 38.3079 92.2476 33.3333 86.1111 33.3333Z" fill="black"/>
<path fill-rule="evenodd" clip-rule="evenodd" d="M58.3333 33.3333C52.1968 33.3333 47.2222 38.3079 47.2222 44.4444V72.2222C47.2222 73.7563 45.9786 75 44.4444 75C42.9103 75 41.6667 73.7563 41.6667 72.2222V44.4444C41.6667 35.2397 49.1286 27.7778 58.3333 27.7778C59.8675 27.7778 61.1111 29.0214 61.1111 30.5556C61.1111 32.0897 59.8675 33.3333 58.3333 33.3333Z" fill="black"/>
<path fill-rule="evenodd" clip-rule="evenodd" d="M2.77778 0C4.3119 0 5.55556 1.24365 5.55556 2.77778V58.3333C5.55556 64.4698 10.5302 69.4444 16.6667 69.4444C22.8032 69.4444 27.7778 64.4698 27.7778 58.3333V44.4444C27.7778 38.3079 22.8032 33.3333 16.6667 33.3333H13.8889C12.3548 33.3333 11.1111 32.0897 11.1111 30.5556C11.1111 29.0214 12.3548 27.7778 13.8889 27.7778H16.6667C25.8714 27.7778 33.3333 35.2397 33.3333 44.4444V58.3333C33.3333 67.5381 25.8714 75 16.6667 75C7.46192 75 0 67.5381 0 58.3333V2.77778C0 1.24365 1.24365 0 2.77778 0Z" fill="black"/>
</svg>
