<svg class="brolly-logo" width="200" height="106" viewBox="0 0 200 106" fill="none" xmlns="http://www.w3.org/2000/svg">
<path fill-rule="evenodd" clip-rule="evenodd" d="M169.444 27.7778C170.979 27.7778 172.222 29.0214 172.222 30.5556V58.3333C172.222 64.4698 177.197 69.4444 183.333 69.4444C189.47 69.4444 194.444 64.4698 194.444 58.3333V30.5556C194.444 29.0214 195.688 27.7778 197.222 27.7778C198.756 27.7778 200 29.0214 200 30.5556V86.1111C200 95.3159 192.538 102.778 183.333 102.778C181.799 102.778 180.556 101.534 180.556 100C180.556 98.4659 181.799 97.2222 183.333 97.2222C189.47 97.2222 194.444 92.2476 194.444 86.1111V70.7561C191.496 73.3953 187.602 75 183.333 75C174.129 75 166.667 67.5381 166.667 58.3333V30.5556C166.667 29.0214 167.91 27.7778 169.444 27.7778Z" fill="black"/>
<path fill-rule="evenodd" clip-rule="evenodd" d="M127.778 69.4444C121.641 69.4444 116.667 64.4698 116.667 58.3333V2.77778C116.667 1.24366 115.423 2.86102e-06 113.889 2.86102e-06C112.355 2.86102e-06 111.111 1.24366 111.111 2.77778V58.3333C111.111 67.5381 118.573 75 127.778 75C129.312 75 130.556 73.7563 130.556 72.2222C130.556 70.6881 129.312 69.4444 127.778 69.4444Z" fill="black"/>
<path fill-rule="evenodd" clip-rule="evenodd" d="M155.556 69.4444C149.419 69.4444 144.444 64.4698 144.444 58.3333V2.77778C144.444 1.24366 143.201 2.86102e-06 141.667 2.86102e-06C140.133 2.86102e-06 138.889 1.24366 138.889 2.77778V58.3333C138.889 67.5381 146.351 75 155.556 75C157.09 75 158.333 73.7563 158.333 72.2222C158.333 70.6881 157.09 69.4444 155.556 69.4444Z" fill="black"/>
<path fill-rule="evenodd" clip-rule="evenodd" d="M69.4444 44.4444C69.4444 35.2397 76.9064 27.7778 86.1111 27.7778C95.3159 27.7778 102.778 35.2397 102.778 44.4444V58.3333C102.778 67.5381 95.3159 75 86.1111 75C76.9064 75 69.4444 67.5381 69.4444 58.3333V44.4444ZM86.1111 33.3333C79.9746 33.3333 75 38.3079 75 44.4444V58.3333C75 64.4698 79.9746 69.4444 86.1111 69.4444C92.2476 69.4444 97.2222 64.4698 97.2222 58.3333V44.4444C97.2222 38.3079 92.2476 33.3333 86.1111 33.3333Z" fill="black"/>
<path fill-rule="evenodd" clip-rule="evenodd" d="M58.3333 33.3333C52.1968 33.3333 47.2222 38.3079 47.2222 44.4444V72.2222C47.2222 73.7563 45.9786 75 44.4444 75C42.9103 75 41.6667 73.7563 41.6667 72.2222V44.4444C41.6667 35.2397 49.1286 27.7778 58.3333 27.7778C59.8675 27.7778 61.1111 29.0214 61.1111 30.5556C61.1111 32.0897 59.8675 33.3333 58.3333 33.3333Z" fill="black"/>
<path fill-rule="evenodd" clip-rule="evenodd" d="M2.77778 0C4.3119 0 5.55556 1.24365 5.55556 2.77778V58.3333C5.55556 64.4698 10.5302 69.4444 16.6667 69.4444C22.8032 69.4444 27.7778 64.4698 27.7778 58.3333V44.4444C27.7778 38.3079 22.8032 33.3333 16.6667 33.3333H13.8889C12.3548 33.3333 11.1111 32.0897 11.1111 30.5556C11.1111 29.0214 12.3548 27.7778 13.8889 27.7778H16.6667C25.8714 27.7778 33.3333 35.2397 33.3333 44.4444V58.3333C33.3333 67.5381 25.8714 75 16.6667 75C7.46192 75 0 67.5381 0 58.3333V2.77778C0 1.24365 1.24365 0 2.77778 0Z" fill="black"/>
<path d="M173.539 100.05L173.526 97.675L173.864 97.6625C174.155 97.6625 174.409 97.6 174.626 97.475C174.851 97.35 175.026 97.1792 175.151 96.9625C175.276 96.7458 175.339 96.5042 175.339 96.2375C175.339 95.9625 175.276 95.7208 175.151 95.5125C175.034 95.3042 174.864 95.1417 174.639 95.025C174.422 94.9083 174.164 94.85 173.864 94.85C173.464 94.85 173.118 94.95 172.826 95.15C172.534 95.35 172.301 95.6333 172.126 96L171.301 95.3125C171.543 94.8208 171.889 94.4375 172.339 94.1625C172.797 93.8875 173.322 93.75 173.914 93.75C174.422 93.75 174.872 93.8542 175.264 94.0625C175.655 94.2625 175.959 94.5458 176.176 94.9125C176.393 95.2708 176.501 95.6875 176.501 96.1625C176.501 96.5958 176.401 96.9917 176.201 97.35C176.009 97.7 175.734 97.9917 175.376 98.225C175.026 98.45 174.609 98.5958 174.126 98.6625L174.614 98.1625L174.514 100.05H173.539ZM174.014 102.925C173.78 102.925 173.584 102.846 173.426 102.688C173.276 102.529 173.201 102.333 173.201 102.1C173.201 101.867 173.276 101.675 173.426 101.525C173.584 101.367 173.78 101.287 174.014 101.287C174.247 101.287 174.439 101.367 174.589 101.525C174.747 101.675 174.826 101.867 174.826 102.1C174.826 102.333 174.747 102.529 174.589 102.688C174.439 102.846 174.247 102.925 174.014 102.925Z" fill="black"/>
<path d="M167.155 102.85L164.58 96.8625H165.83L167.743 101.55H167.343L169.355 96.8625H170.605L167.83 102.85H167.155ZM165.455 105.287L167.205 101.7L167.83 102.85L166.705 105.287H165.455Z" fill="black"/>
<path d="M160.455 102.925C159.913 102.925 159.422 102.792 158.98 102.525C158.538 102.25 158.188 101.879 157.93 101.412C157.68 100.946 157.555 100.421 157.555 99.8375C157.555 99.2542 157.68 98.7292 157.93 98.2625C158.188 97.7958 158.534 97.425 158.967 97.15C159.409 96.875 159.905 96.7375 160.455 96.7375C160.905 96.7375 161.305 96.8333 161.655 97.025C162.013 97.2083 162.301 97.4667 162.517 97.8C162.734 98.125 162.855 98.5042 162.88 98.9375V100.725C162.855 101.15 162.734 101.529 162.517 101.863C162.309 102.196 162.026 102.458 161.667 102.65C161.317 102.833 160.913 102.925 160.455 102.925ZM160.642 101.863C161.201 101.863 161.651 101.675 161.992 101.3C162.334 100.917 162.505 100.429 162.505 99.8375C162.505 99.4292 162.426 99.075 162.267 98.775C162.117 98.4667 161.901 98.2292 161.617 98.0625C161.334 97.8875 161.005 97.8 160.63 97.8C160.255 97.8 159.922 97.8875 159.63 98.0625C159.347 98.2375 159.122 98.4792 158.955 98.7875C158.797 99.0875 158.717 99.4333 158.717 99.825C158.717 100.225 158.797 100.579 158.955 100.888C159.122 101.188 159.351 101.425 159.642 101.6C159.934 101.775 160.267 101.863 160.642 101.863ZM162.43 102.8V101.2L162.642 99.75L162.43 98.3125V96.8625H163.567V102.8H162.43Z" fill="black"/>
<path d="M153.167 102.925C152.617 102.925 152.125 102.792 151.692 102.525C151.259 102.25 150.913 101.879 150.654 101.412C150.404 100.946 150.279 100.421 150.279 99.8375C150.279 99.2542 150.404 98.7292 150.654 98.2625C150.913 97.7958 151.259 97.425 151.692 97.15C152.125 96.875 152.617 96.7375 153.167 96.7375C153.609 96.7375 154.009 96.8333 154.367 97.025C154.725 97.2083 155.013 97.4667 155.229 97.8C155.454 98.125 155.579 98.5042 155.604 98.9375V100.725C155.579 101.15 155.459 101.529 155.242 101.862C155.025 102.196 154.738 102.458 154.38 102.65C154.021 102.833 153.617 102.925 153.167 102.925ZM153.355 101.862C153.73 101.862 154.054 101.775 154.329 101.6C154.613 101.425 154.834 101.187 154.992 100.887C155.15 100.579 155.229 100.229 155.229 99.8375C155.229 99.4292 155.146 99.075 154.979 98.775C154.821 98.475 154.6 98.2375 154.317 98.0625C154.042 97.8875 153.717 97.8 153.342 97.8C152.967 97.8 152.638 97.8875 152.354 98.0625C152.071 98.2375 151.846 98.4792 151.68 98.7875C151.521 99.0875 151.442 99.4333 151.442 99.825C151.442 100.225 151.521 100.579 151.68 100.887C151.846 101.187 152.071 101.425 152.354 101.6C152.646 101.775 152.98 101.862 153.355 101.862ZM156.292 102.8H155.154V101.2L155.367 99.75L155.154 98.3125V93.875H156.292V102.8Z" fill="black"/>
<path d="M146.287 102.925C145.704 102.925 145.179 102.788 144.712 102.513C144.245 102.238 143.874 101.867 143.599 101.4C143.324 100.925 143.187 100.396 143.187 99.8125C143.187 99.2375 143.324 98.7208 143.599 98.2625C143.874 97.7958 144.245 97.425 144.712 97.15C145.179 96.875 145.704 96.7375 146.287 96.7375C146.862 96.7375 147.383 96.875 147.849 97.15C148.324 97.4167 148.699 97.7833 148.974 98.25C149.249 98.7167 149.387 99.2375 149.387 99.8125C149.387 100.396 149.249 100.925 148.974 101.4C148.699 101.867 148.324 102.238 147.849 102.513C147.383 102.788 146.862 102.925 146.287 102.925ZM146.287 101.838C146.662 101.838 146.995 101.75 147.287 101.575C147.579 101.4 147.808 101.163 147.974 100.863C148.141 100.554 148.224 100.204 148.224 99.8125C148.224 99.4292 148.137 99.0875 147.962 98.7875C147.795 98.4875 147.566 98.2542 147.274 98.0875C146.991 97.9125 146.662 97.825 146.287 97.825C145.912 97.825 145.579 97.9125 145.287 98.0875C144.995 98.2542 144.766 98.4875 144.599 98.7875C144.433 99.0875 144.349 99.4292 144.349 99.8125C144.349 100.204 144.433 100.554 144.599 100.863C144.766 101.163 144.995 101.4 145.287 101.575C145.579 101.75 145.912 101.838 146.287 101.838Z" fill="black"/>
<path d="M140.068 102.8V94.375H141.193V102.8H140.068ZM138.605 97.8875V96.8625H142.655V97.8875H138.605Z" fill="black"/>
<path d="M131.805 102.925C131.263 102.925 130.772 102.792 130.33 102.525C129.888 102.25 129.538 101.879 129.28 101.412C129.03 100.946 128.905 100.421 128.905 99.8375C128.905 99.2542 129.03 98.7292 129.28 98.2625C129.538 97.7958 129.884 97.425 130.317 97.15C130.759 96.875 131.255 96.7375 131.805 96.7375C132.255 96.7375 132.655 96.8333 133.005 97.025C133.363 97.2083 133.651 97.4667 133.867 97.8C134.084 98.125 134.205 98.5042 134.23 98.9375V100.725C134.205 101.15 134.084 101.529 133.867 101.863C133.659 102.196 133.376 102.458 133.017 102.65C132.667 102.833 132.263 102.925 131.805 102.925ZM131.992 101.863C132.551 101.863 133.001 101.675 133.342 101.3C133.684 100.917 133.855 100.429 133.855 99.8375C133.855 99.4292 133.776 99.075 133.617 98.775C133.467 98.4667 133.251 98.2292 132.967 98.0625C132.684 97.8875 132.355 97.8 131.98 97.8C131.605 97.8 131.272 97.8875 130.98 98.0625C130.697 98.2375 130.472 98.4792 130.305 98.7875C130.147 99.0875 130.067 99.4333 130.067 99.825C130.067 100.225 130.147 100.579 130.305 100.888C130.472 101.188 130.701 101.425 130.992 101.6C131.284 101.775 131.617 101.863 131.992 101.863ZM133.78 102.8V101.2L133.992 99.75L133.78 98.3125V96.8625H134.917V102.8H133.78Z" fill="black"/>
<path d="M126.509 102.8V93.875H127.634V102.8H126.509Z" fill="black"/>
<path d="M123.738 102.8V93.875H124.863V102.8H123.738Z" fill="black"/>
<path d="M119.786 102.925C119.195 102.925 118.661 102.792 118.186 102.525C117.711 102.25 117.336 101.879 117.061 101.412C116.786 100.946 116.649 100.417 116.649 99.825C116.649 99.2417 116.782 98.7167 117.049 98.25C117.324 97.7833 117.691 97.4167 118.149 97.15C118.616 96.875 119.136 96.7375 119.711 96.7375C120.261 96.7375 120.745 96.8625 121.161 97.1125C121.586 97.3625 121.916 97.7083 122.149 98.15C122.391 98.5917 122.511 99.0917 122.511 99.65C122.511 99.7333 122.507 99.825 122.499 99.925C122.491 100.017 122.474 100.125 122.449 100.25H117.436V99.3125H121.849L121.436 99.675C121.436 99.275 121.366 98.9375 121.224 98.6625C121.082 98.3792 120.882 98.1625 120.624 98.0125C120.366 97.8542 120.053 97.775 119.686 97.775C119.303 97.775 118.966 97.8583 118.674 98.025C118.382 98.1917 118.157 98.425 117.999 98.725C117.841 99.025 117.761 99.3792 117.761 99.7875C117.761 100.204 117.845 100.571 118.011 100.888C118.178 101.196 118.416 101.438 118.724 101.613C119.032 101.779 119.386 101.863 119.786 101.863C120.12 101.863 120.424 101.804 120.699 101.688C120.982 101.571 121.224 101.396 121.424 101.162L122.149 101.9C121.866 102.233 121.516 102.487 121.099 102.662C120.691 102.837 120.253 102.925 119.786 102.925Z" fill="black"/>
<path d="M112.214 102.8V96.8625H113.339V102.8H112.214ZM113.339 99.4125L112.914 99.225C112.914 98.4667 113.089 97.8625 113.439 97.4125C113.789 96.9625 114.294 96.7375 114.952 96.7375C115.252 96.7375 115.523 96.7917 115.764 96.9C116.006 97 116.231 97.1708 116.439 97.4125L115.702 98.175C115.577 98.0417 115.439 97.9458 115.289 97.8875C115.139 97.8292 114.964 97.8 114.764 97.8C114.348 97.8 114.006 97.9333 113.739 98.2C113.473 98.4667 113.339 98.8708 113.339 99.4125Z" fill="black"/>
<path d="M108.064 102.925C107.614 102.925 107.206 102.833 106.839 102.65C106.481 102.458 106.193 102.196 105.977 101.862C105.76 101.529 105.639 101.15 105.614 100.725V98.9375C105.639 98.5042 105.76 98.125 105.977 97.8C106.202 97.4667 106.493 97.2083 106.852 97.025C107.218 96.8333 107.622 96.7375 108.064 96.7375C108.606 96.7375 109.093 96.875 109.527 97.15C109.968 97.425 110.314 97.7958 110.564 98.2625C110.814 98.7292 110.939 99.2542 110.939 99.8375C110.939 100.421 110.814 100.946 110.564 101.412C110.314 101.879 109.968 102.25 109.527 102.525C109.093 102.792 108.606 102.925 108.064 102.925ZM104.939 102.8V93.875H106.064V98.3125L105.852 99.75L106.064 101.2V102.8H104.939ZM107.877 101.862C108.252 101.862 108.581 101.775 108.864 101.6C109.147 101.425 109.372 101.187 109.539 100.887C109.706 100.579 109.789 100.225 109.789 99.825C109.789 99.4333 109.706 99.0833 109.539 98.775C109.372 98.4667 109.147 98.2292 108.864 98.0625C108.581 97.8875 108.256 97.8 107.889 97.8C107.514 97.8 107.185 97.8875 106.902 98.0625C106.618 98.2292 106.397 98.4667 106.239 98.775C106.081 99.0833 106.002 99.4375 106.002 99.8375C106.002 100.229 106.077 100.579 106.227 100.887C106.385 101.187 106.606 101.425 106.889 101.6C107.181 101.775 107.51 101.862 107.877 101.862Z" fill="black"/>
<path d="M94.2457 102.8V96.8625H95.3707V102.8H94.2457ZM98.2582 102.8V99.2125C98.2582 98.7708 98.1207 98.425 97.8457 98.175C97.5791 97.9167 97.2416 97.7875 96.8332 97.7875C96.5582 97.7875 96.3124 97.8458 96.0957 97.9625C95.8791 98.0792 95.7041 98.2417 95.5707 98.45C95.4374 98.6583 95.3707 98.9083 95.3707 99.2L94.9082 98.975C94.9082 98.525 95.0041 98.1333 95.1957 97.8C95.3957 97.4667 95.6666 97.2083 96.0082 97.025C96.3499 96.8333 96.7332 96.7375 97.1582 96.7375C97.5749 96.7375 97.9499 96.8292 98.2832 97.0125C98.6249 97.1958 98.8916 97.4542 99.0832 97.7875C99.2832 98.1208 99.3832 98.5167 99.3832 98.975V102.8H98.2582ZM102.271 102.8V99.2125C102.271 98.7708 102.133 98.425 101.858 98.175C101.592 97.9167 101.258 97.7875 100.858 97.7875C100.583 97.7875 100.333 97.8458 100.108 97.9625C99.8916 98.0792 99.7166 98.2417 99.5832 98.45C99.4499 98.6583 99.3832 98.9083 99.3832 99.2L98.7457 98.975C98.7707 98.5167 98.8916 98.125 99.1082 97.8C99.3332 97.4667 99.6207 97.2083 99.9707 97.025C100.321 96.8333 100.704 96.7375 101.121 96.7375C101.554 96.7375 101.942 96.8292 102.283 97.0125C102.625 97.1958 102.896 97.4542 103.096 97.7875C103.304 98.1208 103.408 98.5208 103.408 98.9875V102.8H102.271Z" fill="black"/>
<path d="M90.188 102.925C89.7046 102.925 89.2671 102.817 88.8755 102.6C88.4921 102.375 88.1921 102.067 87.9755 101.675C87.7588 101.283 87.6505 100.829 87.6505 100.312V96.8625H88.7755V100.262C88.7755 100.587 88.8296 100.871 88.938 101.112C89.0546 101.346 89.2213 101.525 89.438 101.65C89.6546 101.775 89.9088 101.837 90.2005 101.837C90.6421 101.837 90.988 101.7 91.238 101.425C91.488 101.142 91.613 100.754 91.613 100.262V96.8625H92.738V100.312C92.738 100.829 92.6296 101.283 92.413 101.675C92.1963 102.067 91.8963 102.375 91.513 102.6C91.138 102.817 90.6963 102.925 90.188 102.925Z" fill="black"/>
<path d="M82.5522 102.8V99.3375C82.5522 98.8875 82.4105 98.5167 82.1272 98.225C81.8439 97.9333 81.4772 97.7875 81.0272 97.7875C80.7272 97.7875 80.4605 97.8542 80.2272 97.9875C79.9939 98.1208 79.8105 98.3042 79.6772 98.5375C79.5439 98.7708 79.4772 99.0375 79.4772 99.3375L79.0147 99.075C79.0147 98.625 79.1147 98.225 79.3147 97.875C79.5147 97.525 79.7939 97.25 80.1522 97.05C80.5105 96.8417 80.9147 96.7375 81.3647 96.7375C81.8147 96.7375 82.2105 96.85 82.5522 97.075C82.9022 97.3 83.1772 97.5958 83.3772 97.9625C83.5772 98.3208 83.6772 98.7042 83.6772 99.1125V102.8H82.5522ZM78.3522 102.8V96.8625H79.4772V102.8H78.3522Z" fill="black"/>
<path d="M73.6018 102.925C73.0602 102.925 72.5685 102.792 72.1268 102.525C71.6852 102.25 71.3352 101.879 71.0769 101.412C70.8269 100.946 70.7019 100.421 70.7019 99.8375C70.7019 99.2542 70.8269 98.7292 71.0769 98.2625C71.3352 97.7958 71.681 97.425 72.1143 97.15C72.556 96.875 73.0518 96.7375 73.6018 96.7375C74.0518 96.7375 74.4518 96.8333 74.8018 97.025C75.1602 97.2083 75.4477 97.4667 75.6643 97.8C75.881 98.125 76.0018 98.5042 76.0268 98.9375V100.725C76.0018 101.15 75.881 101.529 75.6643 101.863C75.456 102.196 75.1727 102.458 74.8143 102.65C74.4643 102.833 74.0602 102.925 73.6018 102.925ZM73.7894 101.863C74.3477 101.863 74.7977 101.675 75.1394 101.3C75.481 100.917 75.6518 100.429 75.6518 99.8375C75.6518 99.4292 75.5727 99.075 75.4143 98.775C75.2643 98.4667 75.0477 98.2292 74.7644 98.0625C74.481 97.8875 74.1518 97.8 73.7768 97.8C73.4018 97.8 73.0685 97.8875 72.7768 98.0625C72.4935 98.2375 72.2685 98.4792 72.1019 98.7875C71.9435 99.0875 71.8643 99.4333 71.8643 99.825C71.8643 100.225 71.9435 100.579 72.1019 100.888C72.2685 101.188 72.4977 101.425 72.7893 101.6C73.081 101.775 73.4144 101.863 73.7894 101.863ZM75.5769 102.8V101.2L75.7893 99.75L75.5769 98.3125V96.8625H76.7143V102.8H75.5769Z" fill="black"/>
<path d="M63.7139 102.925C63.1639 102.925 62.6722 102.792 62.2389 102.525C61.8055 102.25 61.4597 101.879 61.2014 101.412C60.9514 100.946 60.8264 100.421 60.8264 99.8375C60.8264 99.2542 60.9514 98.7292 61.2014 98.2625C61.4597 97.7958 61.8055 97.425 62.2389 97.15C62.6722 96.875 63.1639 96.7375 63.7139 96.7375C64.1555 96.7375 64.5555 96.8333 64.9139 97.025C65.2722 97.2083 65.5597 97.4667 65.7764 97.8C66.0014 98.125 66.1264 98.5042 66.1514 98.9375V100.725C66.1264 101.15 66.0055 101.529 65.7889 101.862C65.5722 102.196 65.2847 102.458 64.9264 102.65C64.568 102.833 64.1639 102.925 63.7139 102.925ZM63.9014 101.862C64.2764 101.862 64.6014 101.775 64.8764 101.6C65.1597 101.425 65.3805 101.187 65.5389 100.887C65.6972 100.579 65.7764 100.229 65.7764 99.8375C65.7764 99.4292 65.693 99.075 65.5264 98.775C65.368 98.475 65.1472 98.2375 64.8639 98.0625C64.5889 97.8875 64.2639 97.8 63.8889 97.8C63.5139 97.8 63.1847 97.8875 62.9014 98.0625C62.618 98.2375 62.393 98.4792 62.2264 98.7875C62.068 99.0875 61.9889 99.4333 61.9889 99.825C61.9889 100.225 62.068 100.579 62.2264 100.887C62.393 101.187 62.618 101.425 62.9014 101.6C63.193 101.775 63.5264 101.862 63.9014 101.862ZM66.8389 102.8H65.7014V101.2L65.9139 99.75L65.7014 98.3125V93.875H66.8389V102.8Z" fill="black"/>
<path d="M57.2497 102.925C56.6581 102.925 56.1247 102.792 55.6497 102.525C55.1747 102.25 54.7997 101.879 54.5247 101.412C54.2497 100.946 54.1122 100.417 54.1122 99.825C54.1122 99.2417 54.2456 98.7167 54.5122 98.25C54.7872 97.7833 55.1539 97.4167 55.6122 97.15C56.0789 96.875 56.5997 96.7375 57.1747 96.7375C57.7247 96.7375 58.2081 96.8625 58.6247 97.1125C59.0497 97.3625 59.3789 97.7083 59.6122 98.15C59.8539 98.5917 59.9747 99.0917 59.9747 99.65C59.9747 99.7333 59.9706 99.825 59.9622 99.925C59.9539 100.017 59.9372 100.125 59.9122 100.25H54.8997V99.3125H59.3122L58.8997 99.675C58.8997 99.275 58.8289 98.9375 58.6872 98.6625C58.5456 98.3792 58.3456 98.1625 58.0872 98.0125C57.8289 97.8542 57.5164 97.775 57.1497 97.775C56.7664 97.775 56.4289 97.8583 56.1372 98.025C55.8456 98.1917 55.6206 98.425 55.4622 98.725C55.3039 99.025 55.2247 99.3792 55.2247 99.7875C55.2247 100.204 55.3081 100.571 55.4747 100.888C55.6414 101.196 55.8789 101.438 56.1872 101.613C56.4956 101.779 56.8497 101.863 57.2497 101.863C57.5831 101.863 57.8872 101.804 58.1622 101.688C58.4456 101.571 58.6872 101.396 58.8872 101.162L59.6122 101.9C59.3289 102.233 58.9789 102.487 58.5622 102.662C58.1539 102.837 57.7164 102.925 57.2497 102.925Z" fill="black"/>
<path d="M50.5481 102.925C49.9564 102.925 49.4231 102.792 48.9481 102.525C48.4731 102.25 48.0981 101.879 47.8231 101.412C47.5481 100.946 47.4106 100.417 47.4106 99.825C47.4106 99.2417 47.5439 98.7167 47.8106 98.25C48.0856 97.7833 48.4523 97.4167 48.9106 97.15C49.3773 96.875 49.8981 96.7375 50.4731 96.7375C51.0231 96.7375 51.5064 96.8625 51.9231 97.1125C52.3481 97.3625 52.6773 97.7083 52.9106 98.15C53.1523 98.5917 53.2731 99.0917 53.2731 99.65C53.2731 99.7333 53.2689 99.825 53.2606 99.925C53.2523 100.017 53.2356 100.125 53.2106 100.25H48.1981V99.3125H52.6106L52.1981 99.675C52.1981 99.275 52.1273 98.9375 51.9856 98.6625C51.8439 98.3792 51.6439 98.1625 51.3856 98.0125C51.1273 97.8542 50.8148 97.775 50.4481 97.775C50.0648 97.775 49.7273 97.8583 49.4356 98.025C49.1439 98.1917 48.9189 98.425 48.7606 98.725C48.6022 99.025 48.5231 99.3792 48.5231 99.7875C48.5231 100.204 48.6064 100.571 48.7731 100.888C48.9398 101.196 49.1773 101.438 49.4856 101.613C49.7939 101.779 50.1481 101.863 50.5481 101.863C50.8814 101.863 51.1856 101.804 51.4606 101.688C51.7439 101.571 51.9856 101.396 52.1856 101.162L52.9106 101.9C52.6273 102.233 52.2773 102.487 51.8606 102.662C51.4523 102.837 51.0148 102.925 50.5481 102.925Z" fill="black"/>
<path d="M45.1498 102.8V99.3375C45.1498 98.8875 45.0082 98.5167 44.7248 98.225C44.4415 97.9333 44.0748 97.7875 43.6248 97.7875C43.3248 97.7875 43.0582 97.8542 42.8248 97.9875C42.5915 98.1208 42.4082 98.3042 42.2748 98.5375C42.1415 98.7708 42.0748 99.0375 42.0748 99.3375L41.6123 99.075C41.6123 98.625 41.7123 98.225 41.9123 97.875C42.1123 97.525 42.3915 97.25 42.7498 97.05C43.1082 96.8417 43.5123 96.7375 43.9623 96.7375C44.4123 96.7375 44.8082 96.85 45.1498 97.075C45.4998 97.3 45.7748 97.5958 45.9748 97.9625C46.1748 98.3208 46.2748 98.7042 46.2748 99.1125V102.8H45.1498ZM40.9498 102.8V96.8625H42.0748V102.8H40.9498Z" fill="black"/>
<path d="M34.292 102.925C33.8086 102.925 33.3711 102.817 32.9795 102.6C32.5961 102.375 32.2961 102.067 32.0795 101.675C31.8628 101.283 31.7545 100.829 31.7545 100.312V96.8625H32.8795V100.262C32.8795 100.587 32.9336 100.871 33.042 101.112C33.1586 101.346 33.3253 101.525 33.542 101.65C33.7586 101.775 34.0128 101.837 34.3045 101.837C34.7461 101.837 35.092 101.7 35.342 101.425C35.592 101.142 35.717 100.754 35.717 100.262V96.8625H36.842V100.312C36.842 100.829 36.7336 101.283 36.517 101.675C36.3003 102.067 36.0003 102.375 35.617 102.6C35.242 102.817 34.8003 102.925 34.292 102.925Z" fill="black"/>
<path d="M27.537 102.925C26.9536 102.925 26.4286 102.788 25.962 102.513C25.4953 102.238 25.1244 101.867 24.8494 101.4C24.5744 100.925 24.437 100.396 24.437 99.8125C24.437 99.2375 24.5744 98.7208 24.8494 98.2625C25.1244 97.7958 25.4953 97.425 25.962 97.15C26.4286 96.875 26.9536 96.7375 27.537 96.7375C28.112 96.7375 28.6328 96.875 29.0995 97.15C29.5745 97.4167 29.9495 97.7833 30.2245 98.25C30.4995 98.7167 30.6369 99.2375 30.6369 99.8125C30.6369 100.396 30.4995 100.925 30.2245 101.4C29.9495 101.867 29.5745 102.238 29.0995 102.513C28.6328 102.788 28.112 102.925 27.537 102.925ZM27.537 101.838C27.912 101.838 28.2453 101.75 28.537 101.575C28.8286 101.4 29.0578 101.163 29.2245 100.863C29.3911 100.554 29.4744 100.204 29.4744 99.8125C29.4744 99.4292 29.387 99.0875 29.212 98.7875C29.0453 98.4875 28.8161 98.2542 28.5244 98.0875C28.2411 97.9125 27.912 97.825 27.537 97.825C27.162 97.825 26.8286 97.9125 26.5369 98.0875C26.2453 98.2542 26.0161 98.4875 25.8495 98.7875C25.6828 99.0875 25.5995 99.4292 25.5995 99.8125C25.5995 100.204 25.6828 100.554 25.8495 100.863C26.0161 101.163 26.2453 101.4 26.5369 101.575C26.8286 101.75 27.162 101.838 27.537 101.838Z" fill="black"/>
<path d="M20.6831 102.85L18.1081 96.8625H19.3581L21.2706 101.55H20.8706L22.8831 96.8625H24.1331L21.3581 102.85H20.6831ZM18.9831 105.287L20.7331 101.7L21.3581 102.85L20.2331 105.287H18.9831Z" fill="black"/>
<path d="M11.7655 102.925C11.1821 102.925 10.6571 102.788 10.1905 102.513C9.7238 102.238 9.35297 101.867 9.07797 101.4C8.80297 100.925 8.66547 100.396 8.66547 99.8125C8.66547 99.2375 8.80297 98.7208 9.07797 98.2625C9.35297 97.7958 9.7238 97.425 10.1905 97.15C10.6571 96.875 11.1821 96.7375 11.7655 96.7375C12.3405 96.7375 12.8613 96.875 13.328 97.15C13.803 97.4167 14.178 97.7833 14.453 98.25C14.728 98.7167 14.8655 99.2375 14.8655 99.8125C14.8655 100.396 14.728 100.925 14.453 101.4C14.178 101.867 13.803 102.238 13.328 102.513C12.8613 102.788 12.3405 102.925 11.7655 102.925ZM11.7655 101.838C12.1405 101.838 12.4738 101.75 12.7655 101.575C13.0571 101.4 13.2863 101.163 13.453 100.863C13.6196 100.554 13.703 100.204 13.703 99.8125C13.703 99.4292 13.6155 99.0875 13.4405 98.7875C13.2738 98.4875 13.0446 98.2542 12.753 98.0875C12.4696 97.9125 12.1405 97.825 11.7655 97.825C11.3905 97.825 11.0571 97.9125 10.7655 98.0875C10.4738 98.2542 10.2446 98.4875 10.078 98.7875C9.9113 99.0875 9.82797 99.4292 9.82797 99.8125C9.82797 100.204 9.9113 100.554 10.078 100.863C10.2446 101.163 10.4738 101.4 10.7655 101.575C11.0571 101.75 11.3905 101.838 11.7655 101.838Z" fill="black"/>
<path d="M0.775 102.8V101.725H3.1875C3.82917 101.725 4.39167 101.587 4.875 101.312C5.35833 101.029 5.73333 100.642 6 100.15C6.275 99.6583 6.4125 99.0916 6.4125 98.45C6.4125 97.8166 6.275 97.2541 6 96.7625C5.725 96.2708 5.34583 95.8875 4.8625 95.6125C4.37917 95.3375 3.82083 95.2 3.1875 95.2H0.7875V94.125H3.2125C3.84583 94.125 4.42917 94.2333 4.9625 94.45C5.50417 94.6666 5.97083 94.9708 6.3625 95.3625C6.7625 95.7542 7.07083 96.2125 7.2875 96.7375C7.5125 97.2625 7.625 97.8375 7.625 98.4625C7.625 99.0792 7.5125 99.6542 7.2875 100.187C7.07083 100.712 6.76667 101.171 6.375 101.562C5.98333 101.954 5.51667 102.258 4.975 102.475C4.44167 102.692 3.8625 102.8 3.2375 102.8H0.775ZM0 102.8V94.125H1.175V102.8H0Z" fill="black"/>
</svg>
