<svg width="40" height="40" viewBox="0 0 40 40" fill="none" xmlns="http://www.w3.org/2000/svg">
<path d="M33.3457 24.5902C37.4172 14.3906 18.7528 8.92429 15.7683 20.8782C15.7486 20.9572 15.6801 21.0213 15.5998 21.0347C6.49921 22.5651 6.91673 34.8079 18.3918 34.1952C21.0568 34.0529 28.4607 34.2316 31.8764 34.2316C40.6256 34.7254 39.779 24.9777 33.5425 24.8885C33.3948 24.8864 33.2909 24.7274 33.3457 24.5902Z" stroke="black" stroke-width="1.5"/>
<path d="M16.0489 7.87655L16.8179 6.19865M8.9751 7.58535L8.30498 5.75M1.66666 20.2355L3.41739 19.586M3.77631 12.4295L2.11173 11.6545M16.2129 12.4345C14.7197 10.8654 12.3917 10.2453 10.2379 11.0444C7.33724 12.1205 5.8512 15.3632 6.91878 18.2871C7.14276 18.9005 7.46135 19.4512 7.85178 19.9285" stroke="black" stroke-width="1.5" stroke-linecap="round"/>
</svg>
