<svg width="40" height="40" viewBox="0 0 40 40" fill="none" xmlns="http://www.w3.org/2000/svg">
<path d="M17.7222 11.9034C16.9883 9.23147 14.9566 7.10969 12.3613 6.17741C11.3109 5.7978 10.8024 6.3095 11.3001 7.30173C11.7516 8.19784 12.027 9.19366 12.0753 10.2591C12.269 14.2166 9.1595 17.7417 5.14926 18.119C4.55882 18.175 3.98956 18.1642 3.43369 18.0951C2.29685 17.9501 1.96742 18.5755 2.68964 19.449C3.67156 20.6495 4.98326 21.5749 6.48172 22.1028" stroke="black" stroke-width="1.5" stroke-linecap="round" stroke-linejoin="round"/>
<path d="M33.3457 24.5902C37.4172 14.3906 18.7528 8.92429 15.7684 20.8782C15.7487 20.9572 15.6801 21.0213 15.5999 21.0347C6.49924 22.5651 6.91676 34.8079 18.3919 34.1952C21.0568 34.0529 28.4607 34.2316 31.8765 34.2316C40.6256 34.7254 39.779 24.9777 33.5425 24.8885C33.3949 24.8864 33.291 24.7274 33.3457 24.5902Z" stroke="black" stroke-width="1.5"/>
</svg>
