<svg width="40" height="40" viewBox="0 0 40 40" fill="none" xmlns="http://www.w3.org/2000/svg">
<path d="M25 28.2516C27.2736 28.2796 28.5246 28.3138 30.0102 28.3138C39.0366 28.8447 38.1557 18.3557 31.7132 18.2755C31.5667 18.2737 31.4623 18.1173 31.5151 17.9806C35.7529 7.00347 16.4741 1.11137 13.4019 13.9763C13.383 14.0556 13.3163 14.1203 13.236 14.1343C8.31532 14.9939 6.09152 19.0183 6.79331 22.5587" stroke="black" stroke-width="1.5" stroke-linecap="round"/>
<path d="M20.9786 25.5773C23.8296 18.0494 10.3164 14.0407 8.11649 22.8574C8.09678 22.9364 8.02864 23.0006 7.94845 23.0147C1.33732 24.18 1.65653 33.2521 10.0246 32.7972C11.9716 32.6913 17.3806 32.8243 19.8761 32.8243C24.1042 33.0672 25.2649 29.977 24.2474 27.8378C23.7359 26.7623 22.6739 25.9272 21.1744 25.8768C21.0273 25.8718 20.9265 25.7149 20.9786 25.5773Z" stroke="black" stroke-width="1.5"/>
</svg>
