<svg width="40" height="40" viewBox="0 0 40 40" fill="none" xmlns="http://www.w3.org/2000/svg">
<path d="M15.1155 5.15553L15.7454 3.71781M9.3205 4.90601L8.77153 3.33337M3.33334 15.7454L4.76756 15.1889M5.06159 9.05682L3.69795 8.39267M15.2498 9.06109C14.0266 7.71655 12.1194 7.18526 10.355 7.8699C7.97875 8.79199 6.76137 11.5705 7.63594 14.0759C7.81943 14.6016 8.08042 15.0734 8.40027 15.4824" stroke="black" stroke-width="1.5" stroke-linecap="round"/>
<path d="M31.7455 20.1208C35.582 10.1952 17.9624 4.87751 15.1406 16.5084C15.1214 16.5876 15.0531 16.6523 14.9728 16.6662C6.38418 18.162 6.78154 30.0745 17.6178 29.4781C20.1351 29.3396 27.1289 29.5136 30.3554 29.5136C38.6133 29.994 37.8215 20.5191 31.9434 20.4172C31.7966 20.4147 31.6926 20.2578 31.7455 20.1208Z" stroke="black" stroke-width="1.5"/>
<path d="M17.1641 32.9264L15.3136 36.1614" stroke="black" stroke-width="1.5" stroke-linecap="round"/>
<path d="M26.4974 33.0933L24.6469 36.3282" stroke="black" stroke-width="1.5" stroke-linecap="round"/>
<path d="M20.8719 35.0206L19.9614 36.6464" stroke="black" stroke-width="1.5" stroke-linecap="round"/>
<path d="M30.6658 35.2057L29.7552 36.8315" stroke="black" stroke-width="1.5" stroke-linecap="round"/>
</svg>
