<svg width="40" height="40" viewBox="0 0 40 40" fill="none" xmlns="http://www.w3.org/2000/svg">
<path d="M32.6623 20.8543C36.4988 10.9288 18.8792 5.61103 16.0574 17.2419C16.0382 17.3211 15.9699 17.3858 15.8896 17.3998C7.30096 18.8955 7.69832 30.8081 18.5346 30.2117C21.0519 30.0731 28.0457 30.2472 31.2722 30.2472C39.5301 30.7275 38.7383 21.2526 32.8602 21.1508C32.7134 21.1482 32.6093 20.9913 32.6623 20.8543Z" stroke="black" stroke-width="1.5"/>
<path d="M18.0809 33.6598L16.2304 36.8948" stroke="black" stroke-width="1.5" stroke-linecap="round"/>
<path d="M27.4142 33.8267L25.5637 37.0616" stroke="black" stroke-width="1.5" stroke-linecap="round"/>
<path d="M21.7887 35.7539L20.8782 37.3797" stroke="black" stroke-width="1.5" stroke-linecap="round"/>
<path d="M31.5825 35.9391L30.672 37.5649" stroke="black" stroke-width="1.5" stroke-linecap="round"/>
<path d="M17.5834 8.26827C17.0204 5.69027 15.1955 3.56989 12.7745 2.55224C11.7948 2.13819 11.2853 2.59912 11.7086 3.56785C12.0926 4.44283 12.3042 5.40375 12.2964 6.41936C12.2807 10.1927 9.14558 13.388 5.31286 13.5442C4.74854 13.5677 4.20773 13.5286 3.68259 13.4348C2.6088 13.2395 2.26394 13.8176 2.90664 14.6848C3.77979 15.876 4.98046 16.8223 6.3788 17.4" stroke="black" stroke-width="1.5" stroke-linecap="round" stroke-linejoin="round"/>
</svg>
