<svg width="40" height="40" viewBox="0 0 40 40" fill="none" xmlns="http://www.w3.org/2000/svg">
<path d="M28.6641 30.66L26.8136 33.8949" stroke="black" stroke-width="1.5" stroke-linecap="round"/>
<path d="M20 30.0668L18.5406 32.2558C18.452 32.3887 18.5473 32.5668 18.707 32.5668H20.4596C20.6194 32.5668 20.7147 32.7448 20.626 32.8777L19.1667 35.0668" stroke="black" stroke-width="1.2" stroke-linecap="round"/>
<path d="M12.3307 30.66L10.4803 33.8949" stroke="black" stroke-width="1.5" stroke-linecap="round"/>
<path d="M29.8474 16.3956C34.0894 5.33989 14.8069 -0.595359 11.7351 12.3616C11.7163 12.441 11.6481 12.5061 11.5677 12.5202C2.18167 14.1729 2.61055 27.4221 14.4421 26.7591C17.1894 26.6051 24.8222 26.7986 28.3435 26.7986C37.3703 27.3331 36.489 16.77 30.0458 16.6901C29.8994 16.6882 29.795 16.5323 29.8474 16.3956Z" stroke="black" stroke-width="1.5"/>
</svg>
