<svg width="40" height="40" viewBox="0 0 40 40" fill="none" xmlns="http://www.w3.org/2000/svg">
<path fill-rule="evenodd" clip-rule="evenodd" d="M27.6665 20.0515C25.2917 19.3677 22.7411 19.678 20.5996 20.9113C17.7063 22.5775 14.2271 22.8887 11.084 21.7624L7.10812 20.3377C6.51869 20.1265 6.21208 19.4775 6.4233 18.888C6.63451 18.2986 7.28355 17.992 7.87298 18.2032L11.8489 19.6279C14.3656 20.5297 17.1514 20.2806 19.468 18.9464C22.1426 17.4062 25.3281 17.0186 28.2939 17.8726L31.9899 18.9368C32.5916 19.1101 32.9389 19.7383 32.7656 20.34C32.5924 20.9417 31.9642 21.289 31.3625 21.1157L27.6665 20.0515Z" fill="black"/>
<path fill-rule="evenodd" clip-rule="evenodd" d="M29.6464 29.0932C26.6348 28.3982 23.4357 28.7377 20.6217 30.0318C17.0927 31.6548 13.0533 31.9807 9.31246 30.9083L4.15493 29.4298C3.55304 29.2573 3.20499 28.6295 3.37753 28.0276C3.55007 27.4257 4.17787 27.0777 4.77975 27.2502L9.93728 28.7287C13.1498 29.6496 16.6316 29.3712 19.6743 27.9719C22.9382 26.4708 26.6493 26.0746 30.1562 26.8839L34.9543 27.9911C35.5644 28.1319 35.9448 28.7406 35.8041 29.3507C35.6633 29.9608 35.0546 30.3413 34.4445 30.2005L29.6464 29.0932Z" fill="black"/>
<path fill-rule="evenodd" clip-rule="evenodd" d="M29.6464 10.9541C26.6348 10.2591 23.4357 10.5985 20.6217 11.8927C17.0927 13.5157 13.0533 13.8415 9.31246 12.7692L4.15493 11.2907C3.55304 11.1181 3.20499 10.4903 3.37753 9.88844C3.55007 9.28656 4.17787 8.9385 4.77975 9.11104L9.93728 10.5895C13.1498 11.5104 16.6316 11.232 19.6743 9.83269C22.9382 8.33167 26.6493 7.93545 30.1562 8.74473L34.9543 9.85198C35.5644 9.99277 35.9448 10.6015 35.8041 11.2116C35.6633 11.8217 35.0546 12.2021 34.4445 12.0613L29.6464 10.9541Z" fill="black"/>
</svg>
