<svg xmlns="http://www.w3.org/2000/svg" xmlns:xlink="http://www.w3.org/1999/xlink" width="189" zoomAndPan="magnify" viewBox="0 0 141.75 141.750002" height="189" preserveAspectRatio="xMidYMid meet" version="1.0"><defs><clipPath id="0baec0a967"><path d="M 1.589844 0 L 140.097656 0 L 140.097656 141.5 L 1.589844 141.5 Z M 1.589844 0 " clip-rule="nonzero"/></clipPath></defs><g clip-path="url(#0baec0a967)"><path fill="#000000" d="M 56.480469 0 C 26.214844 0 1.613281 24.570312 1.613281 54.796875 C 1.613281 85.019531 26.214844 109.589844 56.480469 109.589844 C 68.464844 109.589844 79.523438 105.695312 88.554688 99.164062 L 130.996094 141.546875 L 140.121094 132.429688 L 98.074219 90.441406 C 106.328125 80.847656 111.351562 68.410156 111.351562 54.796875 C 111.351562 24.570312 86.746094 0 56.480469 0 Z M 56.480469 6.445312 C 83.257812 6.445312 104.894531 28.054688 104.894531 54.796875 C 104.894531 81.535156 83.257812 103.144531 56.480469 103.144531 C 29.703125 103.144531 8.066406 81.535156 8.066406 54.796875 C 8.066406 28.054688 29.703125 6.445312 56.480469 6.445312 Z M 56.480469 6.445312 " fill-opacity="1" fill-rule="nonzero"/></g></svg>