<svg width="40" height="40" viewBox="0 0 40 40" fill="none" xmlns="http://www.w3.org/2000/svg">
<path d="M20 6.5V5" stroke="black" stroke-width="1.5" stroke-linecap="round"/>
<path d="M20 21.4999V30.1249C20 31.9888 21.511 33.4999 23.375 33.4999V33.4999C25.239 33.4999 26.75 31.9888 26.75 30.1249V29.6904" stroke="black" stroke-width="1.5" stroke-linecap="round"/>
<path d="M33.8582 15.7596C34.3562 16.962 34.6946 18.2214 34.8669 19.5058C35.0137 20.6005 34.1046 21.4999 33 21.4999H20L7 21.4999C5.89543 21.4999 4.9863 20.6006 5.13314 19.5058C5.30541 18.2214 5.64376 16.962 6.14181 15.7596C6.89563 13.9397 8.00052 12.2862 9.3934 10.8933C10.7863 9.5004 12.4399 8.39551 14.2597 7.64169C16.0796 6.88786 18.0302 6.49988 20 6.49988C21.9698 6.49988 23.9204 6.88786 25.7403 7.64168C27.5601 8.39551 29.2137 9.5004 30.6066 10.8933C31.9995 12.2862 33.1044 13.9397 33.8582 15.7596Z" stroke="black" stroke-width="1.5"/>
</svg>
