<svg width="128" height="128" viewBox="0 0 128 128" fill="none" xmlns="http://www.w3.org/2000/svg">
<path fill-rule="evenodd" clip-rule="evenodd" d="M64 20C66.2091 20 68 21.7909 68 24V104C68 112.837 75.1634 120 84 120C92.8366 120 100 112.837 100 104V84C100 75.1634 92.8366 68 84 68H80C77.7909 68 76 66.2091 76 64C76 61.7909 77.7909 60 80 60H84C97.2548 60 108 70.7452 108 84V104C108 117.255 97.2548 128 84 128C70.7452 128 60 117.255 60 104V24C60 21.7909 61.7909 20 64 20Z" fill="white"/>
<path fill-rule="evenodd" clip-rule="evenodd" d="M84 120C75.1634 120 68 112.837 68 104V20C68 17.7909 66.2091 16 64 16C61.7909 16 60 17.7909 60 20V104C60 117.255 70.7452 128 84 128C86.2091 128 88 126.209 88 124C88 121.791 86.2091 120 84 120Z" fill="#32ADE6"/>
<path fill-rule="evenodd" clip-rule="evenodd" d="M23.7924 19.0439C13.6497 25.8057 8 34.7078 8 44C8 46.2091 6.20914 48 4 48C1.79086 48 0 46.2091 0 44C0 31.2008 7.78179 20.1029 19.3548 12.3875C30.9558 4.65355 46.7519 0 64 0C81.2481 0 97.0443 4.65355 108.645 12.3875C120.218 20.1029 128 31.2008 128 44C128 46.2091 126.209 48 124 48C121.791 48 120 46.2091 120 44C120 34.7078 114.35 25.8057 104.208 19.0439C94.0928 12.3007 79.889 8 64 8C48.111 8 33.9072 12.3007 23.7924 19.0439Z" fill="#32ADE6"/>
</svg>
