<svg width="288" height="148" viewBox="0 0 288 148" fill="none" xmlns="http://www.w3.org/2000/svg">
<path fill-rule="evenodd" clip-rule="evenodd" d="M244 40C246.209 40 248 41.7909 248 44V84C248 92.8366 255.163 100 264 100C272.837 100 280 92.8366 280 84V44C280 41.7909 281.791 40 284 40C286.209 40 288 41.7909 288 44V124C288 137.255 277.255 148 264 148C261.791 148 260 146.209 260 144C260 141.791 261.791 140 264 140C272.837 140 280 132.837 280 124V101.889C275.754 105.689 270.147 108 264 108C250.745 108 240 97.2548 240 84V44C240 41.7909 241.791 40 244 40Z" fill="#D9D9D9"/>
<path fill-rule="evenodd" clip-rule="evenodd" d="M184 100C175.163 100 168 92.8366 168 84V4C168 1.79086 166.209 0 164 0C161.791 0 160 1.79086 160 4V84C160 97.2548 170.745 108 184 108C186.209 108 188 106.209 188 104C188 101.791 186.209 100 184 100Z" fill="#D9D9D9"/>
<path fill-rule="evenodd" clip-rule="evenodd" d="M224 100C215.163 100 208 92.8366 208 84V4C208 1.79086 206.209 0 204 0C201.791 0 200 1.79086 200 4V84C200 97.2548 210.745 108 224 108C226.209 108 228 106.209 228 104C228 101.791 226.209 100 224 100Z" fill="#D9D9D9"/>
<path fill-rule="evenodd" clip-rule="evenodd" d="M100 64C100 50.7452 110.745 40 124 40C137.255 40 148 50.7452 148 64V84C148 97.2548 137.255 108 124 108C110.745 108 100 97.2548 100 84V64ZM124 48C115.163 48 108 55.1634 108 64V84C108 92.8366 115.163 100 124 100C132.837 100 140 92.8366 140 84V64C140 55.1634 132.837 48 124 48Z" fill="#D9D9D9"/>
<path fill-rule="evenodd" clip-rule="evenodd" d="M84 48C75.1634 48 68 55.1634 68 64V104C68 106.209 66.2091 108 64 108C61.7909 108 60 106.209 60 104V64C60 50.7452 70.7452 40 84 40C86.2091 40 88 41.7909 88 44C88 46.2091 86.2091 48 84 48Z" fill="#D9D9D9"/>
<path fill-rule="evenodd" clip-rule="evenodd" d="M4 0C6.20914 0 8 1.79086 8 4V84C8 92.8366 15.1634 100 24 100C32.8366 100 40 92.8366 40 84V64C40 55.1634 32.8366 48 24 48H20C17.7909 48 16 46.2091 16 44C16 41.7909 17.7909 40 20 40H24C37.2548 40 48 50.7452 48 64V84C48 97.2548 37.2548 108 24 108C10.7452 108 0 97.2548 0 84V4C0 1.79086 1.79086 0 4 0Z" fill="#D9D9D9"/>
</svg>
