<svg width="288" height="152" viewBox="0 0 288 152" fill="none" xmlns="http://www.w3.org/2000/svg">
<path fill-rule="evenodd" clip-rule="evenodd" d="M244 40C246.209 40 248 41.7909 248 44V84C248 92.8366 255.163 100 264 100C272.837 100 280 92.8366 280 84V44C280 41.7909 281.791 40 284 40C286.209 40 288 41.7909 288 44V124C288 137.255 277.255 148 264 148C261.791 148 260 146.209 260 144C260 141.791 261.791 140 264 140C272.837 140 280 132.837 280 124V101.889C275.754 105.689 270.147 108 264 108C250.745 108 240 97.2548 240 84V44C240 41.7909 241.791 40 244 40Z" fill="#D9D9D9"/>
<path fill-rule="evenodd" clip-rule="evenodd" d="M184 100C175.163 100 168 92.8366 168 84V4C168 1.79086 166.209 0 164 0C161.791 0 160 1.79086 160 4V84C160 97.2548 170.745 108 184 108C186.209 108 188 106.209 188 104C188 101.791 186.209 100 184 100Z" fill="#D9D9D9"/>
<path fill-rule="evenodd" clip-rule="evenodd" d="M224 100C215.163 100 208 92.8366 208 84V4C208 1.79086 206.209 0 204 0C201.791 0 200 1.79086 200 4V84C200 97.2548 210.745 108 224 108C226.209 108 228 106.209 228 104C228 101.791 226.209 100 224 100Z" fill="#D9D9D9"/>
<path fill-rule="evenodd" clip-rule="evenodd" d="M100 64C100 50.7452 110.745 40 124 40C137.255 40 148 50.7452 148 64V84C148 97.2548 137.255 108 124 108C110.745 108 100 97.2548 100 84V64ZM124 48C115.163 48 108 55.1634 108 64V84C108 92.8366 115.163 100 124 100C132.837 100 140 92.8366 140 84V64C140 55.1634 132.837 48 124 48Z" fill="#D9D9D9"/>
<path fill-rule="evenodd" clip-rule="evenodd" d="M84 48C75.1634 48 68 55.1634 68 64V104C68 106.209 66.2091 108 64 108C61.7909 108 60 106.209 60 104V64C60 50.7452 70.7452 40 84 40C86.2091 40 88 41.7909 88 44C88 46.2091 86.2091 48 84 48Z" fill="#D9D9D9"/>
<path fill-rule="evenodd" clip-rule="evenodd" d="M4 0C6.20914 0 8 1.79086 8 4V84C8 92.8366 15.1634 100 24 100C32.8366 100 40 92.8366 40 84V64C40 55.1634 32.8366 48 24 48H20C17.7909 48 16 46.2091 16 44C16 41.7909 17.7909 40 20 40H24C37.2548 40 48 50.7452 48 64V84C48 97.2548 37.2548 108 24 108C10.7452 108 0 97.2548 0 84V4C0 1.79086 1.79086 0 4 0Z" fill="#D9D9D9"/>
<path d="M249.896 144.072L249.878 140.652L250.364 140.634C250.784 140.634 251.15 140.544 251.462 140.364C251.786 140.184 252.038 139.938 252.218 139.626C252.398 139.314 252.488 138.966 252.488 138.582C252.488 138.186 252.398 137.838 252.218 137.538C252.05 137.238 251.804 137.004 251.48 136.836C251.168 136.668 250.796 136.584 250.364 136.584C249.788 136.584 249.29 136.728 248.87 137.016C248.45 137.304 248.114 137.712 247.862 138.24L246.674 137.25C247.022 136.542 247.52 135.99 248.168 135.594C248.828 135.198 249.584 135 250.436 135C251.168 135 251.816 135.15 252.38 135.45C252.944 135.738 253.382 136.146 253.694 136.674C254.006 137.19 254.162 137.79 254.162 138.474C254.162 139.098 254.018 139.668 253.73 140.184C253.454 140.688 253.058 141.108 252.542 141.444C252.038 141.768 251.438 141.978 250.742 142.074L251.444 141.354L251.3 144.072H249.896ZM250.58 148.212C250.244 148.212 249.962 148.098 249.734 147.87C249.518 147.642 249.41 147.36 249.41 147.024C249.41 146.688 249.518 146.412 249.734 146.196C249.962 145.968 250.244 145.854 250.58 145.854C250.916 145.854 251.192 145.968 251.408 146.196C251.636 146.412 251.75 146.688 251.75 147.024C251.75 147.36 251.636 147.642 251.408 147.87C251.192 148.098 250.916 148.212 250.58 148.212Z" fill="#D9D9D9"/>
<path d="M240.704 148.104L236.996 139.482H238.796L241.55 146.232H240.974L243.872 139.482H245.672L241.676 148.104H240.704ZM238.256 151.614L240.776 146.448L241.676 148.104L240.056 151.614H238.256Z" fill="#D9D9D9"/>
<path d="M231.055 148.212C230.275 148.212 229.567 148.02 228.931 147.636C228.295 147.24 227.791 146.706 227.419 146.034C227.059 145.362 226.879 144.606 226.879 143.766C226.879 142.926 227.059 142.17 227.419 141.498C227.791 140.826 228.289 140.292 228.913 139.896C229.549 139.5 230.263 139.302 231.055 139.302C231.703 139.302 232.279 139.44 232.783 139.716C233.299 139.98 233.713 140.352 234.025 140.832C234.337 141.3 234.511 141.846 234.547 142.47V145.044C234.511 145.656 234.337 146.202 234.025 146.682C233.725 147.162 233.317 147.54 232.801 147.816C232.297 148.08 231.715 148.212 231.055 148.212ZM231.325 146.682C232.129 146.682 232.777 146.412 233.269 145.872C233.761 145.32 234.007 144.618 234.007 143.766C234.007 143.178 233.893 142.668 233.665 142.236C233.449 141.792 233.137 141.45 232.729 141.21C232.321 140.958 231.847 140.832 231.307 140.832C230.767 140.832 230.287 140.958 229.867 141.21C229.459 141.462 229.135 141.81 228.895 142.254C228.667 142.686 228.553 143.184 228.553 143.748C228.553 144.324 228.667 144.834 228.895 145.278C229.135 145.71 229.465 146.052 229.885 146.304C230.305 146.556 230.785 146.682 231.325 146.682ZM233.899 148.032V145.728L234.205 143.64L233.899 141.57V139.482H235.537V148.032H233.899Z" fill="#D9D9D9"/>
<path d="M220.56 148.212C219.768 148.212 219.06 148.02 218.436 147.636C217.812 147.24 217.314 146.706 216.942 146.034C216.582 145.362 216.402 144.606 216.402 143.766C216.402 142.926 216.582 142.17 216.942 141.498C217.314 140.826 217.812 140.292 218.436 139.896C219.06 139.5 219.768 139.302 220.56 139.302C221.196 139.302 221.772 139.44 222.288 139.716C222.804 139.98 223.218 140.352 223.53 140.832C223.854 141.3 224.034 141.846 224.07 142.47V145.044C224.034 145.656 223.86 146.202 223.548 146.682C223.236 147.162 222.822 147.54 222.306 147.816C221.79 148.08 221.208 148.212 220.56 148.212ZM220.83 146.682C221.37 146.682 221.838 146.556 222.234 146.304C222.642 146.052 222.96 145.71 223.188 145.278C223.416 144.834 223.53 144.33 223.53 143.766C223.53 143.178 223.41 142.668 223.17 142.236C222.942 141.804 222.624 141.462 222.216 141.21C221.82 140.958 221.352 140.832 220.812 140.832C220.272 140.832 219.798 140.958 219.39 141.21C218.982 141.462 218.658 141.81 218.418 142.254C218.19 142.686 218.076 143.184 218.076 143.748C218.076 144.324 218.19 144.834 218.418 145.278C218.658 145.71 218.982 146.052 219.39 146.304C219.81 146.556 220.29 146.682 220.83 146.682ZM225.06 148.032H223.422V145.728L223.728 143.64L223.422 141.57V135.18H225.06V148.032Z" fill="#D9D9D9"/>
<path d="M210.653 148.212C209.813 148.212 209.057 148.014 208.385 147.618C207.713 147.222 207.179 146.688 206.783 146.016C206.387 145.332 206.189 144.57 206.189 143.73C206.189 142.902 206.387 142.158 206.783 141.498C207.179 140.826 207.713 140.292 208.385 139.896C209.057 139.5 209.813 139.302 210.653 139.302C211.481 139.302 212.231 139.5 212.903 139.896C213.587 140.28 214.127 140.808 214.523 141.48C214.919 142.152 215.117 142.902 215.117 143.73C215.117 144.57 214.919 145.332 214.523 146.016C214.127 146.688 213.587 147.222 212.903 147.618C212.231 148.014 211.481 148.212 210.653 148.212ZM210.653 146.646C211.193 146.646 211.673 146.52 212.093 146.268C212.513 146.016 212.843 145.674 213.083 145.242C213.323 144.798 213.443 144.294 213.443 143.73C213.443 143.178 213.317 142.686 213.065 142.254C212.825 141.822 212.495 141.486 212.075 141.246C211.667 140.994 211.193 140.868 210.653 140.868C210.113 140.868 209.633 140.994 209.213 141.246C208.793 141.486 208.463 141.822 208.223 142.254C207.983 142.686 207.863 143.178 207.863 143.73C207.863 144.294 207.983 144.798 208.223 145.242C208.463 145.674 208.793 146.016 209.213 146.268C209.633 146.52 210.113 146.646 210.653 146.646Z" fill="#D9D9D9"/>
<path d="M201.698 148.032V135.9H203.318V148.032H201.698ZM199.592 140.958V139.482H205.424V140.958H199.592Z" fill="#D9D9D9"/>
<path d="M189.799 148.212C189.019 148.212 188.311 148.02 187.675 147.636C187.039 147.24 186.535 146.706 186.163 146.034C185.803 145.362 185.623 144.606 185.623 143.766C185.623 142.926 185.803 142.17 186.163 141.498C186.535 140.826 187.033 140.292 187.657 139.896C188.293 139.5 189.007 139.302 189.799 139.302C190.447 139.302 191.023 139.44 191.527 139.716C192.043 139.98 192.457 140.352 192.769 140.832C193.081 141.3 193.255 141.846 193.291 142.47V145.044C193.255 145.656 193.081 146.202 192.769 146.682C192.469 147.162 192.061 147.54 191.545 147.816C191.041 148.08 190.459 148.212 189.799 148.212ZM190.069 146.682C190.873 146.682 191.521 146.412 192.013 145.872C192.505 145.32 192.751 144.618 192.751 143.766C192.751 143.178 192.637 142.668 192.409 142.236C192.193 141.792 191.881 141.45 191.473 141.21C191.065 140.958 190.591 140.832 190.051 140.832C189.511 140.832 189.031 140.958 188.611 141.21C188.203 141.462 187.879 141.81 187.639 142.254C187.411 142.686 187.297 143.184 187.297 143.748C187.297 144.324 187.411 144.834 187.639 145.278C187.879 145.71 188.209 146.052 188.629 146.304C189.049 146.556 189.529 146.682 190.069 146.682ZM192.643 148.032V145.728L192.949 143.64L192.643 141.57V139.482H194.281V148.032H192.643Z" fill="#D9D9D9"/>
<path d="M182.173 148.032V135.18H183.793V148.032H182.173Z" fill="#D9D9D9"/>
<path d="M178.183 148.032V135.18H179.803V148.032H178.183Z" fill="#D9D9D9"/>
<path d="M172.492 148.212C171.64 148.212 170.872 148.02 170.188 147.636C169.504 147.24 168.964 146.706 168.568 146.034C168.172 145.362 167.974 144.6 167.974 143.748C167.974 142.908 168.166 142.152 168.55 141.48C168.946 140.808 169.474 140.28 170.134 139.896C170.806 139.5 171.556 139.302 172.384 139.302C173.176 139.302 173.872 139.482 174.472 139.842C175.084 140.202 175.558 140.7 175.894 141.336C176.242 141.972 176.416 142.692 176.416 143.496C176.416 143.616 176.41 143.748 176.398 143.892C176.386 144.024 176.362 144.18 176.326 144.36H169.108V143.01H175.462L174.868 143.532C174.868 142.956 174.766 142.47 174.562 142.074C174.358 141.666 174.07 141.354 173.698 141.138C173.326 140.91 172.876 140.796 172.348 140.796C171.796 140.796 171.31 140.916 170.89 141.156C170.47 141.396 170.146 141.732 169.918 142.164C169.69 142.596 169.576 143.106 169.576 143.694C169.576 144.294 169.696 144.822 169.936 145.278C170.176 145.722 170.518 146.07 170.962 146.322C171.406 146.562 171.916 146.682 172.492 146.682C172.972 146.682 173.41 146.598 173.806 146.43C174.214 146.262 174.562 146.01 174.85 145.674L175.894 146.736C175.486 147.216 174.982 147.582 174.382 147.834C173.794 148.086 173.164 148.212 172.492 148.212Z" fill="#D9D9D9"/>
<path d="M161.589 148.032V139.482H163.209V148.032H161.589ZM163.209 143.154L162.597 142.884C162.597 141.792 162.849 140.922 163.353 140.274C163.857 139.626 164.583 139.302 165.531 139.302C165.963 139.302 166.353 139.38 166.701 139.536C167.049 139.68 167.373 139.926 167.673 140.274L166.611 141.372C166.431 141.18 166.233 141.042 166.017 140.958C165.801 140.874 165.549 140.832 165.261 140.832C164.661 140.832 164.169 141.024 163.785 141.408C163.401 141.792 163.209 142.374 163.209 143.154Z" fill="#D9D9D9"/>
<path d="M155.612 148.212C154.964 148.212 154.376 148.08 153.848 147.816C153.332 147.54 152.918 147.162 152.606 146.682C152.294 146.202 152.12 145.656 152.084 145.044V142.47C152.12 141.846 152.294 141.3 152.606 140.832C152.93 140.352 153.35 139.98 153.866 139.716C154.394 139.44 154.976 139.302 155.612 139.302C156.392 139.302 157.094 139.5 157.718 139.896C158.354 140.292 158.852 140.826 159.212 141.498C159.572 142.17 159.752 142.926 159.752 143.766C159.752 144.606 159.572 145.362 159.212 146.034C158.852 146.706 158.354 147.24 157.718 147.636C157.094 148.02 156.392 148.212 155.612 148.212ZM151.112 148.032V135.18H152.732V141.57L152.426 143.64L152.732 145.728V148.032H151.112ZM155.342 146.682C155.882 146.682 156.356 146.556 156.764 146.304C157.172 146.052 157.496 145.71 157.736 145.278C157.976 144.834 158.096 144.324 158.096 143.748C158.096 143.184 157.976 142.68 157.736 142.236C157.496 141.792 157.172 141.45 156.764 141.21C156.356 140.958 155.888 140.832 155.36 140.832C154.82 140.832 154.346 140.958 153.938 141.21C153.53 141.45 153.212 141.792 152.984 142.236C152.756 142.68 152.642 143.19 152.642 143.766C152.642 144.33 152.75 144.834 152.966 145.278C153.194 145.71 153.512 146.052 153.92 146.304C154.34 146.556 154.814 146.682 155.342 146.682Z" fill="#D9D9D9"/>
<path d="M135.714 148.032V139.482H137.334V148.032H135.714ZM141.492 148.032V142.866C141.492 142.23 141.294 141.732 140.898 141.372C140.514 141 140.028 140.814 139.44 140.814C139.044 140.814 138.69 140.898 138.378 141.066C138.066 141.234 137.814 141.468 137.622 141.768C137.43 142.068 137.334 142.428 137.334 142.848L136.668 142.524C136.668 141.876 136.806 141.312 137.082 140.832C137.37 140.352 137.76 139.98 138.252 139.716C138.744 139.44 139.296 139.302 139.908 139.302C140.508 139.302 141.048 139.434 141.528 139.698C142.02 139.962 142.404 140.334 142.68 140.814C142.968 141.294 143.112 141.864 143.112 142.524V148.032H141.492ZM147.27 148.032V142.866C147.27 142.23 147.072 141.732 146.676 141.372C146.292 141 145.812 140.814 145.236 140.814C144.84 140.814 144.48 140.898 144.156 141.066C143.844 141.234 143.592 141.468 143.4 141.768C143.208 142.068 143.112 142.428 143.112 142.848L142.194 142.524C142.23 141.864 142.404 141.3 142.716 140.832C143.04 140.352 143.454 139.98 143.958 139.716C144.462 139.44 145.014 139.302 145.614 139.302C146.238 139.302 146.796 139.434 147.288 139.698C147.78 139.962 148.17 140.334 148.458 140.814C148.758 141.294 148.908 141.87 148.908 142.542V148.032H147.27Z" fill="#D9D9D9"/>
<path d="M129.871 148.212C129.175 148.212 128.545 148.056 127.981 147.744C127.429 147.42 126.997 146.976 126.685 146.412C126.373 145.848 126.217 145.194 126.217 144.45V139.482H127.837V144.378C127.837 144.846 127.915 145.254 128.071 145.602C128.239 145.938 128.479 146.196 128.791 146.376C129.103 146.556 129.469 146.646 129.889 146.646C130.525 146.646 131.023 146.448 131.383 146.052C131.743 145.644 131.923 145.086 131.923 144.378V139.482H133.543V144.45C133.543 145.194 133.387 145.848 133.075 146.412C132.763 146.976 132.331 147.42 131.779 147.744C131.239 148.056 130.603 148.212 129.871 148.212Z" fill="#D9D9D9"/>
<path d="M118.875 148.032V143.046C118.875 142.398 118.671 141.864 118.263 141.444C117.855 141.024 117.327 140.814 116.679 140.814C116.247 140.814 115.863 140.91 115.527 141.102C115.191 141.294 114.927 141.558 114.735 141.894C114.543 142.23 114.447 142.614 114.447 143.046L113.781 142.668C113.781 142.02 113.925 141.444 114.213 140.94C114.501 140.436 114.903 140.04 115.419 139.752C115.935 139.452 116.517 139.302 117.165 139.302C117.813 139.302 118.383 139.464 118.875 139.788C119.379 140.112 119.775 140.538 120.063 141.066C120.351 141.582 120.495 142.134 120.495 142.722V148.032H118.875ZM112.827 148.032V139.482H114.447V148.032H112.827Z" fill="#D9D9D9"/>
<path d="M105.987 148.212C105.207 148.212 104.499 148.02 103.863 147.636C103.227 147.24 102.723 146.706 102.351 146.034C101.991 145.362 101.811 144.606 101.811 143.766C101.811 142.926 101.991 142.17 102.351 141.498C102.723 140.826 103.221 140.292 103.845 139.896C104.481 139.5 105.195 139.302 105.987 139.302C106.635 139.302 107.211 139.44 107.715 139.716C108.231 139.98 108.645 140.352 108.957 140.832C109.269 141.3 109.443 141.846 109.479 142.47V145.044C109.443 145.656 109.269 146.202 108.957 146.682C108.657 147.162 108.249 147.54 107.733 147.816C107.229 148.08 106.647 148.212 105.987 148.212ZM106.257 146.682C107.061 146.682 107.709 146.412 108.201 145.872C108.693 145.32 108.939 144.618 108.939 143.766C108.939 143.178 108.825 142.668 108.597 142.236C108.381 141.792 108.069 141.45 107.661 141.21C107.253 140.958 106.779 140.832 106.239 140.832C105.699 140.832 105.219 140.958 104.799 141.21C104.391 141.462 104.067 141.81 103.827 142.254C103.599 142.686 103.485 143.184 103.485 143.748C103.485 144.324 103.599 144.834 103.827 145.278C104.067 145.71 104.397 146.052 104.817 146.304C105.237 146.556 105.717 146.682 106.257 146.682ZM108.831 148.032V145.728L109.137 143.64L108.831 141.57V139.482H110.469V148.032H108.831Z" fill="#D9D9D9"/>
<path d="M91.748 148.212C90.956 148.212 90.248 148.02 89.624 147.636C89 147.24 88.502 146.706 88.13 146.034C87.77 145.362 87.59 144.606 87.59 143.766C87.59 142.926 87.77 142.17 88.13 141.498C88.502 140.826 89 140.292 89.624 139.896C90.248 139.5 90.956 139.302 91.748 139.302C92.384 139.302 92.96 139.44 93.476 139.716C93.992 139.98 94.406 140.352 94.718 140.832C95.042 141.3 95.222 141.846 95.258 142.47V145.044C95.222 145.656 95.048 146.202 94.736 146.682C94.424 147.162 94.01 147.54 93.494 147.816C92.978 148.08 92.396 148.212 91.748 148.212ZM92.018 146.682C92.558 146.682 93.026 146.556 93.422 146.304C93.83 146.052 94.148 145.71 94.376 145.278C94.604 144.834 94.718 144.33 94.718 143.766C94.718 143.178 94.598 142.668 94.358 142.236C94.13 141.804 93.812 141.462 93.404 141.21C93.008 140.958 92.54 140.832 92 140.832C91.46 140.832 90.986 140.958 90.578 141.21C90.17 141.462 89.846 141.81 89.606 142.254C89.378 142.686 89.264 143.184 89.264 143.748C89.264 144.324 89.378 144.834 89.606 145.278C89.846 145.71 90.17 146.052 90.578 146.304C90.998 146.556 91.478 146.682 92.018 146.682ZM96.248 148.032H94.61V145.728L94.916 143.64L94.61 141.57V135.18H96.248V148.032Z" fill="#D9D9D9"/>
<path d="M82.4396 148.212C81.5876 148.212 80.8196 148.02 80.1356 147.636C79.4516 147.24 78.9116 146.706 78.5156 146.034C78.1196 145.362 77.9216 144.6 77.9216 143.748C77.9216 142.908 78.1136 142.152 78.4976 141.48C78.8936 140.808 79.4216 140.28 80.0816 139.896C80.7536 139.5 81.5036 139.302 82.3316 139.302C83.1236 139.302 83.8196 139.482 84.4196 139.842C85.0316 140.202 85.5056 140.7 85.8416 141.336C86.1896 141.972 86.3636 142.692 86.3636 143.496C86.3636 143.616 86.3576 143.748 86.3456 143.892C86.3336 144.024 86.3096 144.18 86.2736 144.36H79.0556V143.01H85.4096L84.8156 143.532C84.8156 142.956 84.7136 142.47 84.5096 142.074C84.3056 141.666 84.0176 141.354 83.6456 141.138C83.2736 140.91 82.8236 140.796 82.2956 140.796C81.7436 140.796 81.2576 140.916 80.8376 141.156C80.4176 141.396 80.0936 141.732 79.8656 142.164C79.6376 142.596 79.5236 143.106 79.5236 143.694C79.5236 144.294 79.6436 144.822 79.8836 145.278C80.1236 145.722 80.4656 146.07 80.9096 146.322C81.3536 146.562 81.8636 146.682 82.4396 146.682C82.9196 146.682 83.3576 146.598 83.7536 146.43C84.1616 146.262 84.5096 146.01 84.7976 145.674L85.8416 146.736C85.4336 147.216 84.9296 147.582 84.3296 147.834C83.7416 148.086 83.1116 148.212 82.4396 148.212Z" fill="#D9D9D9"/>
<path d="M72.7892 148.212C71.9372 148.212 71.1692 148.02 70.4852 147.636C69.8012 147.24 69.2612 146.706 68.8652 146.034C68.4692 145.362 68.2712 144.6 68.2712 143.748C68.2712 142.908 68.4632 142.152 68.8472 141.48C69.2432 140.808 69.7712 140.28 70.4312 139.896C71.1032 139.5 71.8532 139.302 72.6812 139.302C73.4732 139.302 74.1692 139.482 74.7692 139.842C75.3812 140.202 75.8552 140.7 76.1912 141.336C76.5392 141.972 76.7132 142.692 76.7132 143.496C76.7132 143.616 76.7072 143.748 76.6952 143.892C76.6832 144.024 76.6592 144.18 76.6232 144.36H69.4052V143.01H75.7592L75.1652 143.532C75.1652 142.956 75.0632 142.47 74.8592 142.074C74.6552 141.666 74.3672 141.354 73.9952 141.138C73.6232 140.91 73.1732 140.796 72.6452 140.796C72.0932 140.796 71.6072 140.916 71.1872 141.156C70.7672 141.396 70.4432 141.732 70.2152 142.164C69.9872 142.596 69.8732 143.106 69.8732 143.694C69.8732 144.294 69.9932 144.822 70.2332 145.278C70.4732 145.722 70.8152 146.07 71.2592 146.322C71.7032 146.562 72.2132 146.682 72.7892 146.682C73.2692 146.682 73.7072 146.598 74.1032 146.43C74.5112 146.262 74.8592 146.01 75.1472 145.674L76.1912 146.736C75.7832 147.216 75.2792 147.582 74.6792 147.834C74.0912 148.086 73.4612 148.212 72.7892 148.212Z" fill="#D9D9D9"/>
<path d="M65.0158 148.032V143.046C65.0158 142.398 64.8118 141.864 64.4038 141.444C63.9958 141.024 63.4678 140.814 62.8198 140.814C62.3878 140.814 62.0038 140.91 61.6678 141.102C61.3318 141.294 61.0678 141.558 60.8758 141.894C60.6838 142.23 60.5878 142.614 60.5878 143.046L59.9218 142.668C59.9218 142.02 60.0658 141.444 60.3538 140.94C60.6418 140.436 61.0438 140.04 61.5598 139.752C62.0758 139.452 62.6578 139.302 63.3058 139.302C63.9538 139.302 64.5238 139.464 65.0158 139.788C65.5198 140.112 65.9158 140.538 66.2038 141.066C66.4918 141.582 66.6358 142.134 66.6358 142.722V148.032H65.0158ZM58.9678 148.032V139.482H60.5878V148.032H58.9678Z" fill="#D9D9D9"/>
<path d="M49.3804 148.212C48.6844 148.212 48.0544 148.056 47.4904 147.744C46.9384 147.42 46.5064 146.976 46.1944 146.412C45.8824 145.848 45.7264 145.194 45.7264 144.45V139.482H47.3464V144.378C47.3464 144.846 47.4244 145.254 47.5804 145.602C47.7484 145.938 47.9884 146.196 48.3004 146.376C48.6124 146.556 48.9784 146.646 49.3984 146.646C50.0344 146.646 50.5324 146.448 50.8924 146.052C51.2524 145.644 51.4324 145.086 51.4324 144.378V139.482H53.0524V144.45C53.0524 145.194 52.8964 145.848 52.5844 146.412C52.2724 146.976 51.8404 147.42 51.2884 147.744C50.7484 148.056 50.1124 148.212 49.3804 148.212Z" fill="#D9D9D9"/>
<path d="M39.6532 148.212C38.8132 148.212 38.0572 148.014 37.3852 147.618C36.7132 147.222 36.1792 146.688 35.7832 146.016C35.3872 145.332 35.1892 144.57 35.1892 143.73C35.1892 142.902 35.3872 142.158 35.7832 141.498C36.1792 140.826 36.7132 140.292 37.3852 139.896C38.0572 139.5 38.8132 139.302 39.6532 139.302C40.4812 139.302 41.2312 139.5 41.9032 139.896C42.5872 140.28 43.1272 140.808 43.5232 141.48C43.9192 142.152 44.1172 142.902 44.1172 143.73C44.1172 144.57 43.9192 145.332 43.5232 146.016C43.1272 146.688 42.5872 147.222 41.9032 147.618C41.2312 148.014 40.4812 148.212 39.6532 148.212ZM39.6532 146.646C40.1932 146.646 40.6732 146.52 41.0932 146.268C41.5132 146.016 41.8432 145.674 42.0832 145.242C42.3232 144.798 42.4432 144.294 42.4432 143.73C42.4432 143.178 42.3172 142.686 42.0652 142.254C41.8252 141.822 41.4952 141.486 41.0752 141.246C40.6672 140.994 40.1932 140.868 39.6532 140.868C39.1132 140.868 38.6332 140.994 38.2132 141.246C37.7932 141.486 37.4632 141.822 37.2232 142.254C36.9832 142.686 36.8632 143.178 36.8632 143.73C36.8632 144.294 36.9832 144.798 37.2232 145.242C37.4632 145.674 37.7932 146.016 38.2132 146.268C38.6332 146.52 39.1132 146.646 39.6532 146.646Z" fill="#D9D9D9"/>
<path d="M29.7837 148.104L26.0757 139.482H27.8757L30.6297 146.232H30.0537L32.9517 139.482H34.7517L30.7557 148.104H29.7837ZM27.3357 151.614L29.8557 146.448L30.7557 148.104L29.1357 151.614H27.3357Z" fill="#D9D9D9"/>
<path d="M16.9423 148.212C16.1023 148.212 15.3463 148.014 14.6743 147.618C14.0023 147.222 13.4683 146.688 13.0723 146.016C12.6763 145.332 12.4783 144.57 12.4783 143.73C12.4783 142.902 12.6763 142.158 13.0723 141.498C13.4683 140.826 14.0023 140.292 14.6743 139.896C15.3463 139.5 16.1023 139.302 16.9423 139.302C17.7703 139.302 18.5203 139.5 19.1923 139.896C19.8763 140.28 20.4163 140.808 20.8123 141.48C21.2083 142.152 21.4063 142.902 21.4063 143.73C21.4063 144.57 21.2083 145.332 20.8123 146.016C20.4163 146.688 19.8763 147.222 19.1923 147.618C18.5203 148.014 17.7703 148.212 16.9423 148.212ZM16.9423 146.646C17.4823 146.646 17.9623 146.52 18.3823 146.268C18.8023 146.016 19.1323 145.674 19.3723 145.242C19.6123 144.798 19.7323 144.294 19.7323 143.73C19.7323 143.178 19.6063 142.686 19.3543 142.254C19.1143 141.822 18.7843 141.486 18.3643 141.246C17.9563 140.994 17.4823 140.868 16.9423 140.868C16.4023 140.868 15.9223 140.994 15.5023 141.246C15.0823 141.486 14.7523 141.822 14.5123 142.254C14.2723 142.686 14.1523 143.178 14.1523 143.73C14.1523 144.294 14.2723 144.798 14.5123 145.242C14.7523 145.674 15.0823 146.016 15.5023 146.268C15.9223 146.52 16.4023 146.646 16.9423 146.646Z" fill="#D9D9D9"/>
<path d="M1.116 148.032V146.484H4.59C5.514 146.484 6.324 146.286 7.02 145.89C7.716 145.482 8.256 144.924 8.64 144.216C9.036 143.508 9.234 142.692 9.234 141.768C9.234 140.856 9.036 140.046 8.64 139.338C8.244 138.63 7.698 138.078 7.002 137.682C6.306 137.286 5.502 137.088 4.59 137.088H1.134V135.54H4.626C5.538 135.54 6.378 135.696 7.146 136.008C7.926 136.32 8.598 136.758 9.162 137.322C9.738 137.886 10.182 138.546 10.494 139.302C10.818 140.058 10.98 140.886 10.98 141.786C10.98 142.674 10.818 143.502 10.494 144.27C10.182 145.026 9.744 145.686 9.18 146.25C8.616 146.814 7.944 147.252 7.164 147.564C6.396 147.876 5.562 148.032 4.662 148.032H1.116ZM0 148.032V135.54H1.692V148.032H0Z" fill="#D9D9D9"/>
</svg>
