<svg width="40" height="40" viewBox="0 0 40 40" fill="none" xmlns="http://www.w3.org/2000/svg">
<path d="M33.3457 24.5901C37.4172 14.3905 18.7528 8.92417 15.7683 20.8781C15.7486 20.957 15.6801 21.0211 15.5998 21.0346C6.49921 22.565 6.91673 34.8078 18.3918 34.1951C21.0568 34.0528 28.4607 34.2315 31.8764 34.2315C40.6256 34.7253 39.779 24.9776 33.5425 24.8884C33.3948 24.8863 33.2909 24.7272 33.3457 24.5901Z" stroke="white" stroke-width="1.5"/>
<path d="M16.0488 7.87655L16.8177 6.19865M8.97495 7.58535L8.30482 5.75M1.6665 20.2355L3.41723 19.586M3.77615 12.4295L2.11158 11.6545M16.2128 12.4345C14.7196 10.8654 12.3915 10.2453 10.2378 11.0444C7.33708 12.1205 5.85104 15.3632 6.91863 18.2871C7.14261 18.9005 7.4612 19.4512 7.85163 19.9285" stroke="#FFD60A" stroke-width="1.5" stroke-linecap="round"/>
</svg>
