<svg width="40" height="40" viewBox="0 0 40 40" fill="none" xmlns="http://www.w3.org/2000/svg">
<path d="M15.1156 5.15566L15.7455 3.71793M9.32065 4.90613L8.77168 3.3335M3.3335 15.7455L4.76771 15.189M5.06175 9.05694L3.69811 8.39279M15.25 9.06121C14.0267 7.71667 12.1196 7.18538 10.3552 7.87002C7.9789 8.79212 6.76152 11.5706 7.63609 14.076C7.81958 14.6017 8.08058 15.0735 8.40042 15.4825" stroke="#FFD60A" stroke-width="1.5" stroke-linecap="round"/>
<path d="M31.7456 20.1211C35.5821 10.1955 17.9625 4.87776 15.1407 16.5087C15.1215 16.5878 15.0532 16.6525 14.9729 16.6665C6.38427 18.1622 6.78163 30.0748 17.6179 29.4784C20.1352 29.3398 27.129 29.5139 30.3555 29.5139C38.6134 29.9942 37.8216 20.5193 31.9435 20.4175C31.7967 20.4149 31.6927 20.258 31.7456 20.1211Z" stroke="white" stroke-width="1.5"/>
<path d="M17.1641 32.9267L15.3136 36.1616" stroke="#64D2FF" stroke-width="1.5" stroke-linecap="round"/>
<path d="M26.4976 33.0932L24.6471 36.3281" stroke="#64D2FF" stroke-width="1.5" stroke-linecap="round"/>
<path d="M20.872 35.0205L19.9614 36.6463" stroke="#64D2FF" stroke-width="1.5" stroke-linecap="round"/>
<path d="M30.6659 35.206L29.7554 36.8318" stroke="#64D2FF" stroke-width="1.5" stroke-linecap="round"/>
</svg>
