<svg width="40" height="40" viewBox="0 0 40 40" fill="none" xmlns="http://www.w3.org/2000/svg">
<path d="M20 21.5V30.125C20 31.989 21.511 33.5 23.375 33.5V33.5C25.239 33.5 26.75 31.989 26.75 30.125V29.6905" stroke="white" stroke-width="1.5" stroke-linecap="round"/>
<path d="M20 6.5V5" stroke="white" stroke-width="1.5" stroke-linecap="round"/>
<path d="M33.8582 15.7597C34.3562 16.9621 34.6946 18.2216 34.8669 19.5059C35.0137 20.6007 34.1046 21.5 33 21.5H20L7 21.5C5.89543 21.5 4.9863 20.6007 5.13314 19.5059C5.30541 18.2216 5.64376 16.9621 6.14181 15.7597C6.89563 13.9399 8.00052 12.2863 9.3934 10.8934C10.7863 9.50052 12.4399 8.39563 14.2597 7.64181C16.0796 6.88799 18.0302 6.5 20 6.5C21.9698 6.5 23.9204 6.88799 25.7403 7.64181C27.5601 8.39563 29.2137 9.50052 30.6066 10.8934C31.9995 12.2863 33.1044 13.9399 33.8582 15.7597Z" stroke="#64D2FF" stroke-width="1.5"/>
</svg>
