<svg width="40" height="40" viewBox="0 0 40 40" fill="none" xmlns="http://www.w3.org/2000/svg">
<path d="M17.7223 11.9034C16.9884 9.23147 14.9567 7.10969 12.3614 6.17741C11.311 5.7978 10.8025 6.3095 11.3002 7.30173C11.7517 8.19784 12.0271 9.19366 12.0754 10.2591C12.2691 14.2166 9.15959 17.7417 5.14936 18.119C4.55891 18.175 3.98965 18.1642 3.43378 18.0951C2.29694 17.9501 1.96751 18.5755 2.68974 19.449C3.67165 20.6495 4.98335 21.5749 6.48181 22.1028" stroke="#AEAEB2" stroke-width="1.5" stroke-linecap="round" stroke-linejoin="round"/>
<path d="M33.3457 24.5901C37.4172 14.3905 18.7528 8.92417 15.7683 20.8781C15.7486 20.957 15.6801 21.0211 15.5998 21.0346C6.49921 22.565 6.91673 34.8078 18.3918 34.1951C21.0568 34.0528 28.4607 34.2315 31.8764 34.2315C40.6256 34.7253 39.779 24.9776 33.5425 24.8884C33.3948 24.8863 33.2909 24.7272 33.3457 24.5901Z" stroke="black" stroke-width="1.5"/>
</svg>
