<svg width="40" height="40" viewBox="0 0 40 40" fill="none" xmlns="http://www.w3.org/2000/svg">
<path d="M25.0003 28.2515C27.2739 28.2795 28.5249 28.3137 30.0105 28.3137C39.037 28.8445 38.1561 18.3556 31.7135 18.2754C31.567 18.2736 31.4627 18.1171 31.5154 17.9805C35.7533 7.00335 16.4744 1.11125 13.4023 13.9762C13.3833 14.0555 13.3167 14.1202 13.2363 14.1342C8.31565 14.9938 6.09186 19.0182 6.79365 22.5586" stroke="black" stroke-width="1.5" stroke-linecap="round"/>
<path d="M20.9788 25.5769C23.8297 18.049 10.3165 14.0403 8.11665 22.857C8.09693 22.936 8.0288 23.0002 7.9486 23.0143C1.33747 24.1796 1.65669 33.2517 10.0247 32.7968C11.9717 32.6909 17.3808 32.8239 19.8762 32.8239C24.1043 33.0668 25.265 29.9766 24.2476 27.8374C23.7361 26.7619 22.674 25.9268 21.1745 25.8764C21.0274 25.8715 20.9266 25.7145 20.9788 25.5769Z" stroke="#AEAEB2" stroke-width="1.5"/>
</svg>
