<svg width="40" height="40" viewBox="0 0 40 40" fill="none" xmlns="http://www.w3.org/2000/svg">
<path d="M32.6621 20.8545C36.4986 10.9289 18.879 5.61115 16.0572 17.2421C16.038 17.3212 15.9697 17.3859 15.8894 17.3999C7.30078 18.8956 7.69814 30.8082 18.5344 30.2118C21.0517 30.0732 28.0455 30.2473 31.272 30.2473C39.5299 30.7276 38.7381 21.2527 32.86 21.1509C32.7132 21.1483 32.6092 20.9914 32.6621 20.8545Z" stroke="black" stroke-width="1.5"/>
<path d="M17.5835 8.26815C17.0205 5.69015 15.1956 3.56977 12.7746 2.55212C11.7949 2.13807 11.2854 2.599 11.7086 3.56773C12.0927 4.44271 12.3043 5.40363 12.2965 6.41923C12.2808 10.1926 9.14567 13.3878 5.31296 13.5441C4.74863 13.5675 4.20782 13.5285 3.68268 13.4347C2.6089 13.2394 2.26403 13.8175 2.90673 14.6847C3.77989 15.8759 4.98055 16.8222 6.3789 17.3999" stroke="#8E8E93" stroke-width="1.5" stroke-linecap="round" stroke-linejoin="round"/>
<path d="M18.0806 33.6596L16.2301 36.8945" stroke="#32ADE6" stroke-width="1.5" stroke-linecap="round"/>
<path d="M27.4141 33.8266L25.5636 37.0615" stroke="#32ADE6" stroke-width="1.5" stroke-linecap="round"/>
<path d="M21.7885 35.7539L20.878 37.3797" stroke="#32ADE6" stroke-width="1.5" stroke-linecap="round"/>
<path d="M31.5824 35.939L30.6719 37.5647" stroke="#32ADE6" stroke-width="1.5" stroke-linecap="round"/>
</svg>
