<svg width="40" height="40" viewBox="0 0 40 40" fill="none" xmlns="http://www.w3.org/2000/svg">
<path d="M28.6641 30.6601L26.8136 33.895" stroke="#64D2FF" stroke-width="1.5" stroke-linecap="round"/>
<path d="M20.0002 30.0669L18.5408 32.256C18.4522 32.3889 18.5475 32.5669 18.7072 32.5669H20.4598C20.6195 32.5669 20.7148 32.7449 20.6262 32.8778L19.1668 35.0669" stroke="#FFD60A" stroke-width="1.2" stroke-linecap="round"/>
<path d="M12.3306 30.6601L10.4801 33.895" stroke="#64D2FF" stroke-width="1.5" stroke-linecap="round"/>
<path d="M29.8474 16.3956C34.0894 5.33989 14.8069 -0.595359 11.7351 12.3616C11.7163 12.441 11.6481 12.5061 11.5677 12.5202C2.18167 14.1729 2.61055 27.4221 14.4421 26.7591C17.1894 26.6051 24.8222 26.7986 28.3435 26.7986C37.3703 27.3331 36.489 16.77 30.0458 16.6901C29.8994 16.6882 29.795 16.5323 29.8474 16.3956Z" stroke="white" stroke-width="1.5"/>
</svg>
