<svg width="40" height="40" viewBox="0 0 40 40" fill="none" xmlns="http://www.w3.org/2000/svg">
<path fill-rule="evenodd" clip-rule="evenodd" d="M27.6664 20.0513C25.2916 19.3675 22.741 19.6779 20.5995 20.9111C17.7062 22.5774 14.227 22.8886 11.0839 21.7623L7.10802 20.3376C6.5186 20.1264 6.21199 19.4774 6.4232 18.8879C6.63442 18.2985 7.28346 17.9919 7.87289 18.2031L11.8488 19.6278C14.3655 20.5296 17.1513 20.2804 19.468 18.9463C22.1425 17.406 25.328 17.0185 28.2938 17.8725L31.9898 18.9367C32.5915 19.11 32.9388 19.7382 32.7655 20.3399C32.5923 20.9415 31.9641 21.2888 31.3624 21.1156L27.6664 20.0513Z" fill="#636366"/>
<path fill-rule="evenodd" clip-rule="evenodd" d="M29.6465 29.0934C26.6349 28.3984 23.4359 28.7378 20.6218 30.032C17.0928 31.655 13.0535 31.9808 9.31261 30.9084L4.15508 29.4299C3.5532 29.2574 3.20514 28.6296 3.37768 28.0277C3.55022 27.4258 4.17802 27.0778 4.7799 27.2503L9.93744 28.7288C13.1499 29.6497 16.6317 29.3713 19.6745 27.972C22.9383 26.4709 26.6495 26.0747 30.1564 26.884L34.9545 27.9913C35.5646 28.1321 35.945 28.7408 35.8042 29.3509C35.6634 29.9609 35.0547 30.3414 34.4446 30.2006L29.6465 29.0934Z" fill="white"/>
<path fill-rule="evenodd" clip-rule="evenodd" d="M29.6465 10.9542C26.6349 10.2592 23.4359 10.5987 20.6218 11.8928C17.0928 13.5158 13.0535 13.8417 9.31261 12.7693L4.15508 11.2908C3.5532 11.1182 3.20514 10.4904 3.37768 9.88856C3.55022 9.28668 4.17802 8.93863 4.7799 9.11117L9.93744 10.5897C13.1499 11.5106 16.6317 11.2321 19.6745 9.83281C22.9383 8.33179 26.6495 7.93557 30.1564 8.74485L34.9545 9.85211C35.5646 9.9929 35.945 10.6016 35.8042 11.2117C35.6634 11.8218 35.0547 12.2022 34.4446 12.0614L29.6465 10.9542Z" fill="white"/>
</svg>
